<svg id="Layer_1" data-name="Layer 1" xmlns="http://www.w3.org/2000/svg" viewBox="0 0 1265 798.63"><defs><style>.cls-1{fill:#0d498e;}.cls-2{fill:#ef7724;}.cls-3,.cls-4{fill:none;stroke:#000;stroke-miterlimit:10;}.cls-3{stroke-width:1.32px;}.cls-4{stroke-width:3.25px;}</style></defs><title>icons</title><rect class="cls-1" y="77.14" width="77.48" height="24.39"/><rect class="cls-1" x="91.07" y="135.18" width="77.48" height="24.39" transform="translate(-17.57 277.18) rotate(-90)"/><path class="cls-1" d="M117.61,178.61H39.51c-19.42,0-22.21-22.22-22.21-22.22V101.52h34v32.64s2.8,13.21,22.22,13.21h44.19Z"/><circle class="cls-1" cx="90.18" cy="98.47" r="3.05"/><circle class="cls-1" cx="107.2" cy="110.67" r="3.05"/><line class="cls-1" x1="87.13" y1="83.23" x2="87.13" y2="98.47"/><line class="cls-1" x1="104.15" y1="92.38" x2="104.15" y2="110.67"/><polygon class="cls-1" points="87.13 77.14 107.2 89.33 107.2 95.43 86.11 84.76 87.13 77.14"/><rect x="330.5" y="140.13" width="117" height="36"/><polygon points="389.5 104.13 316.5 140.13 473.5 140.13 389.5 104.13"/><path class="cls-2" d="M279,726.39l24-19.48V755.6l-24-29.21Zm-48.38,6.76,19.92,16.14,19.95-16.17,29.22,35.51h-97.8l28.71-35.48Zm-29.65-37.52h99.14L250.5,735.8l-49.57-40.17Zm21.15,30.79L198,756.17V706.91l24.08,19.51ZM188,684.63v94H313v-94Z"/><path class="cls-2" d="M573,703.63H563c-3.43,0-6,1.4-6,4.94v6.06h16l-1.27,16H557v45H540v-44H529v-17h11V704.06c0-11.46,5.85-17.43,19-17.43h14v17Zm17.29-39H512.81A27.81,27.81,0,0,0,485,692.44v78.37a27.82,27.82,0,0,0,27.81,27.82h77.38A27.82,27.82,0,0,0,618,770.81V692.54a27.8,27.8,0,0,0-27.71-27.91Z"/><path class="cls-2" d="M926.48,748.72c-.73,16.18-9.74,25.14-25.88,25.89-4.75.21-6.26.27-18.35.27s-13.6-.06-18.34-.27c-16.18-.75-25.15-9.72-25.89-25.89-.22-4.74-.27-6.26-.27-18.34s0-13.6.27-18.35c.74-16.18,9.72-25.15,25.89-25.89,4.74-.21,6.25-.26,18.34-.26s13.6,0,18.35.26c16.18.75,25.16,9.74,25.88,25.89.22,4.75.27,6.26.27,18.35s0,13.6-.27,18.34Zm-5.4-85.09H842.81A27.81,27.81,0,0,0,815,691.44v78.37a27.82,27.82,0,0,0,27.81,27.82h78.38A27.82,27.82,0,0,0,949,769.81V691.54a27.91,27.91,0,0,0-27.92-27.91Zm-24,66.75a14.84,14.84,0,1,1-14.84-14.84,14.83,14.83,0,0,1,14.84,14.84ZM906,712a5.34,5.34,0,1,1,5.34-5.34A5.34,5.34,0,0,1,906,712Zm-23.75,41.27a22.86,22.86,0,1,1,22.85-22.85,22.86,22.86,0,0,1-22.85,22.85Zm18-59.08c-4.7-.21-6.11-.25-18-.25s-13.29,0-18,.25c-12.07.55-17.69,6.28-18.24,18.24-.21,4.7-.26,6.1-.26,18s.05,13.29.26,18c.55,11.95,6.15,17.69,18.24,18.24,4.69.21,6.1.26,18,.26s13.29-.05,18-.26c12.07-.55,17.68-6.28,18.24-18.24.21-4.69.25-6.1.25-18s0-13.29-.25-18c-.56-12-6.18-17.69-18.24-18.24Z"/><path class="cls-2" d="M1236.92,716c1.16,25.69-18,54.32-51.9,54.32a51.69,51.69,0,0,1-28-8.2,36.74,36.74,0,0,0,27-7.56,18.27,18.27,0,0,1-17-12.68,18.35,18.35,0,0,0,8.24-.32,18.26,18.26,0,0,1-14.64-18.13,18.1,18.1,0,0,0,8.27,2.28,18.28,18.28,0,0,1-5.65-24.38,51.81,51.81,0,0,0,37.63,19.08A18.27,18.27,0,0,1,1232,703.76a36.83,36.83,0,0,0,11.61-4.43,18.35,18.35,0,0,1-8,10.1,36.17,36.17,0,0,0,10.48-2.88,36.87,36.87,0,0,1-9.11,9.45Zm.37-51.37h-77.48A27.81,27.81,0,0,0,1132,692.44v78.37a27.82,27.82,0,0,0,27.81,27.82h77.38A27.82,27.82,0,0,0,1265,770.81V692.54a27.8,27.8,0,0,0-27.71-27.91Z"/><rect class="cls-3" x="792.92" y="58.5" width="132.17" height="81.25" rx="23.3" ry="23.3"/><rect class="cls-4" x="755" y="1.63" width="208" height="312" rx="57.27" ry="57.27"/><circle class="cls-4" cx="859" cy="219.38" r="40.63"/></svg>