<svg id="Layer_1" data-name="Layer 1" xmlns="http://www.w3.org/2000/svg" viewBox="0 0 133 134"><defs><style>.cls-1{fill:#ef7724;}</style></defs><title>icons</title><path class="cls-1" d="M104.92,51.38c1.16,25.68-18,54.32-51.9,54.32a51.77,51.77,0,0,1-28-8.2,36.79,36.79,0,0,0,27-7.57A18.26,18.26,0,0,1,35,77.25a18.36,18.36,0,0,0,8.24-.31A18.28,18.28,0,0,1,28.61,58.8a18.23,18.23,0,0,0,8.27,2.29,18.28,18.28,0,0,1-5.65-24.38A51.85,51.85,0,0,0,68.86,55.79,18.27,18.27,0,0,1,100,39.13a36.59,36.59,0,0,0,11.61-4.43,18.32,18.32,0,0,1-8,10.1A36.47,36.47,0,0,0,114,41.93a37,37,0,0,1-9.11,9.45ZM105.29,0H27.81A27.81,27.81,0,0,0,0,27.81v78.38A27.81,27.81,0,0,0,27.81,134h77.38A27.81,27.81,0,0,0,133,106.19V27.92A27.81,27.81,0,0,0,105.29,0Z"/></svg>