<svg id="Layer_1" data-name="Layer 1" xmlns="http://www.w3.org/2000/svg" viewBox="0 0 134 134"><defs><style>.cls-1{fill:#ef7724;}</style></defs><title>icons</title><path class="cls-1" d="M111.48,85.09c-.73,16.19-9.74,25.15-25.88,25.89-4.75.22-6.26.27-18.35.27s-13.6,0-18.34-.27c-16.18-.74-25.15-9.72-25.89-25.89-.22-4.74-.27-6.25-.27-18.34s.05-13.6.27-18.35c.74-16.17,9.72-25.14,25.89-25.88,4.74-.22,6.25-.27,18.34-.27s13.6.05,18.35.27c16.18.74,25.16,9.74,25.88,25.88.22,4.75.27,6.27.27,18.35s0,13.6-.27,18.34ZM106.08,0H27.81A27.81,27.81,0,0,0,0,27.81v78.38A27.81,27.81,0,0,0,27.81,134h78.38A27.81,27.81,0,0,0,134,106.19V27.92A27.92,27.92,0,0,0,106.08,0Zm-24,66.75A14.84,14.84,0,1,1,67.25,51.92,14.84,14.84,0,0,1,82.09,66.75ZM91,48.34A5.34,5.34,0,1,1,96.34,43,5.34,5.34,0,0,1,91,48.34ZM67.25,89.6A22.85,22.85,0,1,1,90.1,66.75,22.85,22.85,0,0,1,67.25,89.6Zm18-59.07c-4.7-.22-6.11-.26-18-.26s-13.29,0-18,.26C37.2,31.08,31.58,36.8,31,48.77c-.21,4.69-.26,6.1-.26,18s.05,13.29.26,18c.55,12,6.15,17.69,18.24,18.24,4.69.22,6.1.26,18,.26s13.29,0,18-.26c12.07-.54,17.68-6.28,18.24-18.24.21-4.69.25-6.1.25-18s0-13.29-.25-18c-.56-12-6.18-17.69-18.24-18.24Z"/></svg>