<?xml version="1.0" encoding="utf-8"?>
<!-- Generator: Adobe Illustrator 22.0.1, SVG Export Plug-In . SVG Version: 6.00 Build 0)  -->
<svg version="1.1" id="Layer_1" xmlns="http://www.w3.org/2000/svg" xmlns:xlink="http://www.w3.org/1999/xlink" x="0px" y="0px"
	 viewBox="0 0 24 24" style="enable-background:new 0 0 24 24;" xml:space="preserve">
<path d="M12,2c5.5,0,10,4.5,10,10s-4.5,10-10,10S2,17.5,2,12S6.5,2,12,2z M12,0C5.4,0,0,5.4,0,12s5.4,12,12,12s12-5.4,12-12
	S18.6,0,12,0z M12,15.8c-2.1,0-3.8-1.7-3.8-3.8S9.9,8.2,12,8.2c1.2,0,2.3,0.5,3.1,1.7L17,8.7C15.7,6.8,13.9,6,12,6c-3.3,0-6,2.7-6,6
	s2.7,6,6,6c1.9,0,3.7-0.9,5-2.7l-1.9-1.2C14.3,15.3,13.2,15.8,12,15.8z"/>
</svg>
